<?xml version="1.0" ?><svg id="United_x5F_Kingdom" style="enable-background:new 0 0 300 300;" version="1.1" viewBox="0 0 300 300" xml:space="preserve" xmlns="http://www.w3.org/2000/svg" xmlns:xlink="http://www.w3.org/1999/xlink"><g><polygon points="   273.749,70 34,70 34.352,238 274,238  " style="fill:#288EEA;stroke:#000000;stroke-width:8;stroke-linecap:round;stroke-linejoin:round;stroke-miterlimit:10;"/><polygon points="   273.824,126 185.724,126 185.724,70 121.523,70 121.523,126 34,126 34.142,185.757 121.523,185.757 121.523,238 185.724,238    185.724,185.757 273.925,185.757  " style="fill:#FFFFFF;stroke:#000000;stroke-width:8;stroke-linecap:round;stroke-linejoin:round;stroke-miterlimit:10;"/><polygon points="   170,142 181.377,142 273.764,80.006 273.749,70 259.96,70 170,130.366  " style="fill:#EE5281;stroke:#000000;stroke-width:8;stroke-linecap:round;stroke-linejoin:round;stroke-miterlimit:10;"/><polygon points="   138,142 126.623,142 34.236,80.006 34.251,70 48.04,70 138,130.366  " style="fill:#EE5281;stroke:#000000;stroke-width:8;stroke-linecap:round;stroke-linejoin:round;stroke-miterlimit:10;"/><polygon points="   170,166 181.377,166 273.764,227.994 273.749,238 259.96,238 170,177.634  " style="fill:#EE5281;stroke:#000000;stroke-width:8;stroke-linecap:round;stroke-linejoin:round;stroke-miterlimit:10;"/><polygon points="   138,166 126.623,166 34.236,227.994 34.251,238 48.04,238 138,177.634  " style="fill:#EE5281;stroke:#000000;stroke-width:8;stroke-linecap:round;stroke-linejoin:round;stroke-miterlimit:10;"/><polygon points="   273.851,142 170,142 170,70 138,70 138,142 34,142 34.066,170 138,170 138,238 170,238 170,170 273.898,170  " style="fill:#EE5281;stroke:#000000;stroke-width:8;stroke-linecap:round;stroke-linejoin:round;stroke-miterlimit:10;"/></g><g/><g/><g/><g/><g/><g/><g/><g/><g/><g/><g/><g/><g/><g/><g/></svg>